PathFileType	4	(X/Y/Z)	flex.trc
DataRate	CameraRate	NumFrames	NumMarkers	Units	OrigDataRate	OrigDataStartFrame	OrigNumFrames
100.0	100.0	11	17	mm	100.0	508	1352
Frame#	Time	STER			XIPH			T10			T1			CLAV_AC			SCAP_AA			SCAP_CP			SCAP_TS			SCAP_IA			DELT			ARMl			EPICm			EPICl			LARM_elb			STYLr			STYLu			CLAV_SC		
		X1	Y1	Z1	X2	Y2	Z2	X3	Y3	Z3	X4	Y4	Z4	X5	Y5	Z5	X6	Y6	Z6	X7	Y7	Z7	X8	Y8	Z8	X9	Y9	Z9	X10	Y10	Z10	X11	Y11	Z11	X12	Y12	Z12	X13	Y13	Z13	X14	Y14	Z14	X15	Y15	Z15	X16	Y16	Z16	X17	Y17	Z17

508	5.07	395.1002197265625	56.0592041015625	1431.6796875	390.91949462890625	105.68709564208984	1272.0179443359375	400.478271484375	-124.41624450683594	1238.84912109375	399.8329772949219	-103.75955963134766	1471.174560546875	581.2036743164062	16.963335037231445	1452.22021484375	604.1907348632812	-19.85704803466797	1433.6053466796875	549.3823852539062	-48.70595932006836	1461.4771728515625	546.6551513671875	-108.53804016113281	1416.1280517578125	519.1836547851562	-131.9356231689453	1279.705810546875	650.699951171875	86.0140151977539	1330.9620361328125	667.3735961914062	112.32355499267578	1292.1107177734375	625.2607421875	209.4961700439453	1161.3353271484375	712.1821899414062	205.90049743652344	1223.142333984375	672.6098022460938	203.70379638671875	1151.667724609375	692.0912475585938	484.3410949707031	1170.7071533203125	695.2364501953125	449.09051513671875	1097.1630859375	430.8425598144531	52.41535949707031	1436.3140869140625
509	5.08	394.75921630859375	55.72596740722656	1431.74853515625	391.0065002441406	105.3621597290039	1272.19873046875	400.5998840332031	-124.61299133300781	1238.7618408203125	399.81634521484375	-104.18820190429688	1471.0380859375	580.7398071289062	16.600997924804688	1452.7493896484375	604.010986328125	-19.972990036010742	1434.0911865234375	549.1376953125	-49.10810089111328	1461.44189453125	546.7910766601562	-108.69084930419922	1415.9820556640625	519.5122680664062	-131.9473419189453	1279.7344970703125	650.5145874023438	87.29454803466797	1333.1817626953125	667.1519165039062	114.33614349365234	1294.9190673828125	625.2446899414062	213.94387817382812	1165.8701171875	711.8078002929688	209.61976623535156	1228.0684814453125	672.5391235351562	208.6776123046875	1156.334716796875	690.2184448242188	489.0868225097656	1181.4071044921875	693.7307739257812	455.4290771484375	1107.2266845703125	430.3285217285156	52.36213684082031	1436.1171875
510	5.09	394.7032775878906	55.324073791503906	1431.86572265625	390.6189880371094	105.1297378540039	1272.210205078125	400.7190246582031	-124.77368927001953	1238.7012939453125	399.8284606933594	-104.64907836914062	1470.9246826171875	580.240234375	16.184293746948242	1453.3245849609375	603.8402709960938	-20.122085571289062	1434.5863037109375	548.9844970703125	-49.5449333190918	1461.395263671875	546.89453125	-108.86412048339844	1415.9527587890625	519.8313598632812	-131.9669952392578	1279.7698974609375	650.3056030273438	88.56089782714844	1335.4326171875	666.9385986328125	116.31893157958984	1297.7886962890625	624.9360961914062	218.78582763671875	1170.96630859375	711.4555053710938	213.23880004882812	1233.11083984375	672.3800659179688	213.62843322753906	1161.155029296875	688.4583740234375	493.5631103515625	1192.27197265625	692.2669067382812	461.5080871582031	1117.312744140625	430.6121520996094	51.56217956542969	1437.08349609375
511	5.1000000000000005	394.30419921875	54.97755813598633	1432.0147705078125	390.85516357421875	104.91825103759766	1272.429443359375	400.8559875488281	-124.95814514160156	1238.601318359375	399.8286437988281	-105.07369232177734	1470.8018798828125	579.7833862304688	15.772218704223633	1453.8873291015625	603.62158203125	-20.273529052734375	1435.057373046875	548.7972412109375	-49.99415588378906	1461.35009765625	547.0166625976562	-109.02215576171875	1415.767578125	520.3604125976562	-131.91824340820312	1279.7064208984375	650.1135864257812	89.82269287109375	1337.734375	666.6605224609375	118.27079010009766	1300.7181396484375	624.6193237304688	223.1166229248047	1175.9200439453125	711.0535278320312	216.7517547607422	1238.1846923828125	672.2064208984375	218.38787841796875	1166.0458984375	686.7385864257812	497.822265625	1203.0477294921875	690.630126953125	467.569580078125	1127.6781005859375	430.3247985839844	51.48755645751953	1437.0255126953125
512	5.11	394.0649108886719	54.56781768798828	1432.205322265625	390.427978515625	104.69630432128906	1272.4447021484375	400.9753723144531	-125.11573791503906	1238.5218505859375	399.78753662109375	-105.5133056640625	1470.658447265625	579.2965698242188	15.397140502929688	1454.4532470703125	603.4327392578125	-20.40865707397461	1435.5244140625	548.6046142578125	-50.42304611206055	1461.3187255859375	547.1138916015625	-109.1858139038086	1415.6705322265625	520.6405639648438	-131.9080047607422	1279.7171630859375	649.9161987304688	91.0321044921875	1340.095703125	666.4555053710938	120.18170166015625	1303.7080078125	624.3258666992188	227.43893432617188	1180.642578125	710.6622924804688	220.14271545410156	1243.2891845703125	672.006591796875	223.10733032226562	1171.0064697265625	685.1929321289062	501.8408508300781	1213.9261474609375	689.5745239257812	473.02752685546875	1137.836181640625	429.7584533691406	51.129520416259766	1437.0244140625
513	5.12	393.89593505859375	54.194461822509766	1432.3267822265625	390.66650390625	104.4681396484375	1272.5675048828125	401.10223388671875	-125.27029418945312	1238.457275390625	399.842041015625	-105.9267578125	1470.5247802734375	578.8379516601562	15.003613471984863	1454.9964599609375	603.2387084960938	-20.547548294067383	1436.01318359375	548.5270385742188	-50.83366775512695	1461.279052734375	547.176513671875	-109.339111328125	1415.6934814453125	520.8851928710938	-131.87281799316406	1279.733154296875	649.7887573242188	92.23554992675781	1342.483154296875	666.1796264648438	122.03523254394531	1306.7330322265625	624.70263671875	231.3204345703125	1185.27734375	710.22900390625	223.40916442871094	1248.397216796875	671.7443237304688	227.71456909179688	1176.0513916015625	683.4723510742188	505.60247802734375	1224.77197265625	688.2376098632812	478.3581237792969	1148.084716796875	429.0583801269531	50.69622802734375	1437.0260009765625
514	5.13	393.64111328125	53.826148986816406	1432.4267578125	390.20599365234375	104.27462005615234	1272.6864013671875	401.2200622558594	-125.39061737060547	1238.386474609375	399.86676025390625	-106.3200454711914	1470.407958984375	578.2906494140625	14.604619979858398	1455.5743408203125	603.0408325195312	-20.66798973083496	1436.4835205078125	548.283447265625	-51.251502990722656	1461.2679443359375	547.296630859375	-109.45819091796875	1415.617919921875	520.886962890625	-131.83303833007812	1279.8314208984375	649.4822998046875	93.38040924072266	1344.872314453125	665.934326171875	123.85802459716797	1309.781982421875	624.0531005859375	235.44757080078125	1190.6929931640625	709.7962036132812	226.5623016357422	1253.58251953125	671.4920043945312	232.17384338378906	1181.1829833984375	681.8716430664062	509.14862060546875	1235.6138916015625	686.77197265625	483.4911193847656	1158.290283203125	429.6368713378906	50.17845916748047	1437.7037353515625
515	5.14	393.3860778808594	53.44466018676758	1432.5460205078125	390.4879150390625	104.0324935913086	1272.935546875	401.35418701171875	-125.54088592529297	1238.31396484375	399.91802978515625	-106.69385528564453	1470.2843017578125	577.8997802734375	14.243790626525879	1456.112548828125	602.906005859375	-20.79131317138672	1437.0205078125	548.1536254882812	-51.64720153808594	1461.2567138671875	547.5120239257812	-109.53929901123047	1415.477783203125	521.14697265625	-131.74847412109375	1279.875732421875	649.335205078125	94.5008544921875	1347.2843017578125	665.6651000976562	125.59165954589844	1312.855712890625	623.8712768554688	239.33494567871094	1195.677001953125	709.3617553710938	229.6356964111328	1258.7952880859375	671.2721557617188	236.53607177734375	1186.35888671875	680.3994750976562	512.4688110351562	1246.4202880859375	685.9481811523438	488.36895751953125	1168.7281494140625	429.3495788574219	49.742942810058594	1437.9794921875
516	5.15	392.76806640625	53.09603500366211	1432.5823974609375	389.85015869140625	103.86166381835938	1272.960205078125	401.4822998046875	-125.65536499023438	1238.2432861328125	399.9755859375	-107.0667724609375	1470.1566162109375	577.393798828125	13.87857723236084	1456.6976318359375	602.8115844726562	-20.879018783569336	1437.533203125	547.9868774414062	-52.01777267456055	1461.2554931640625	547.5823974609375	-109.62806701660156	1415.478515625	521.4511108398438	-131.65110778808594	1279.9349365234375	649.1488647460938	95.5771713256836	1349.6993408203125	665.41845703125	127.276123046875	1315.928955078125	623.991943359375	243.11961364746094	1200.4310302734375	708.9375610351562	232.6049346923828	1264.054931640625	671.0885620117188	240.778564453125	1191.592041015625	678.8488159179688	515.5498046875	1257.205078125	684.6258544921875	493.0708312988281	1179.043212890625	428.8769836425781	49.41981506347656	1438.0340576171875
517	5.16	392.9630126953125	52.74851608276367	1432.795166015625	389.84820556640625	103.66642761230469	1273.073974609375	401.6070556640625	-125.77002716064453	1238.1690673828125	400.0416259765625	-107.39899444580078	1470.0419921875	576.9612426757812	13.499008178710938	1457.2764892578125	602.5562133789062	-20.993350982666016	1438.0426025390625	547.8362426757812	-52.402610778808594	1461.2618408203125	547.701904296875	-109.67982482910156	1415.4112548828125	522.0179443359375	-131.50836181640625	1279.90087890625	649.0541381835938	96.63401794433594	1352.1961669921875	665.1578979492188	128.9647979736328	1319.0521240234375	624.1439819335938	246.57716369628906	1205.924072265625	708.4379272460938	235.44886779785156	1269.3153076171875	670.878173828125	244.87142944335938	1196.9078369140625	677.4102783203125	518.4426879882812	1267.96484375	683.2619018554688	497.5135498046875	1189.3221435546875	428.1338195800781	49.10566711425781	1438.12060546875
518	5.17	392.8114013671875	52.47521209716797	1432.9241943359375	389.8667297363281	103.52986145019531	1273.2314453125	401.7110290527344	-125.86377716064453	1238.114013671875	400.0609436035156	-107.74462890625	1469.91015625	576.4983520507812	13.112557411193848	1457.857421875	602.4140014648438	-21.09765625	1438.536376953125	547.7749633789062	-52.787235260009766	1461.2630615234375	547.8394165039062	-109.72399139404297	1415.3013916015625	522.2459716796875	-131.35610961914062	1279.972900390625	648.8198852539062	97.66836547851562	1354.623779296875	664.91357421875	130.56922912597656	1322.220458984375	624.1947021484375	249.8779754638672	1211.6561279296875	707.9886474609375	238.19198608398438	1274.6654052734375	670.6585083007812	248.88645935058594	1202.2569580078125	676.0440673828125	521.0996704101562	1278.7042236328125	681.9788818359375	501.7386779785156	1199.6358642578125	427.859130859375	48.79680633544922	1438.412841796875
